<?xml version="1.0" encoding="utf-8"?>
<!DOCTYPE svg PUBLIC "-//W3C//DTD SVG 1.1//EN" "http://www.w3.org/Graphics/SVG/1.1/DTD/svg11.dtd">
<svg version="1.1" id="Layer_1" xmlns="http://www.w3.org/2000/svg" xmlns:xlink="http://www.w3.org/1999/xlink" x="0px" y="0px"
	 viewBox="0 0 327 160" xml:space="preserve">
<style type="text/css">
	.s{fill:#FFFFFF;}
	.p{fill:#FFFFFF;}
	.i{fill:#FFFFFF;}
	.k{fill:#FFFFFF;}
	.e{fill:#FFFFFF;}
</style>
<g>
	<path class="letter s" d="M58.9,68.5c-3.5-3.3-8.2-5.6-13.5-5.6c-4,0-9.7,2.3-10.4,7c-0.8,4.9,4.8,6.8,8.4,8l5.3,1.7
		c11.1,3.5,19.1,9.4,17,23c-1.3,8.4-4.7,17-12.2,22.7c-7.4,5.6-16.5,7.9-25,7.9c-10.5,0-20.3-3.6-27.9-9.6L12.6,106
		c4.7,4.8,10.5,8.7,17.9,8.7c5.1,0,10.9-2.6,11.9-8.5c1-6.1-7.2-8.3-11.7-9.6c-13-3.9-21.4-7.5-18.9-23.8
		c2.7-17.1,16.5-28.2,33.3-28.2c8.4,0,18.3,2.7,25.1,6.9L58.9,68.5z"/>
	<path class="letter p" d="M100.7,80.2h0.2c4.6-5.7,11.8-8.4,18.5-8.4c17,0,26.5,14.3,23.9,30.7c-2.6,16.5-16.4,30.4-33.3,30.4
		c-6.5,0-12.9-2.3-16.5-7.4l-5.4,34.1H68l13.5-85.9h20.2L100.7,80.2z M96.5,102.4c-1.1,7.3,2.7,12.8,10.9,12.8
		c8.2,0,13.8-5.6,15-12.8c1.1-7-2.7-13-10.9-13C103.3,89.5,97.6,95.4,96.5,102.4z"/>
	<polygon class="letter i" points="171.2,131 151,131 160,73.7 180.2,73.7 	"/>
	<path class="letter i" d="M184.9,51.7c-1,6.3-6.9,11.4-13.1,11.4s-10.5-5.1-9.5-11.4s6.9-11.4,13.1-11.4S185.9,45.5,184.9,51.7z"/>
	<polygon class="letter k" points="264.4,73.7 236.8,73.7 212.6,94.4 221.5,38.3 221.4,38.3 227.4,0.4 207.2,0.4 186.7,131 206.9,131 
		210.5,107.7 228.9,131 257.2,131 231.8,100.2"/>
	<path class="letter e" d="M325.6,105.8h-42.5c-1.3,8.3,2.3,12.7,10.6,12.7c4.3,0,7.7-1.5,10.5-5.2h19.4c-5.3,13.5-19.1,19.6-32,19.6
		c-18.8,0-31.2-10.7-28.1-30.5c3-19.1,17.8-30.6,36.3-30.6c19.7,0,29.2,12.3,26.1,31.8L325.6,105.8z M308.7,94.1
		c-0.1-5.5-4.6-9-10-9c-5.9,0-11.2,3.1-13.4,9H308.7z"/>
</g>
</svg>
